<?xml version="1.0" standalone="no"?>
<!DOCTYPE svg PUBLIC "-//W3C//DTD SVG 20010904//EN"
 "http://www.w3.org/TR/2001/REC-SVG-20010904/DTD/svg10.dtd">
<svg version="1.0" xmlns="http://www.w3.org/2000/svg"
 width="450.000000pt" height="450.000000pt" viewBox="0 0 450.000000 450.000000"
 preserveAspectRatio="xMidYMid meet">
<metadata>
Created by potrace 1.11, written by Peter Selinger 2001-2013
</metadata>
<g transform="translate(0.000000,450.000000) scale(0.100000,-0.100000)"
fill="#000000" stroke="none">
<path d="M2089 4436 c-2 -2 -31 -6 -64 -9 -193 -19 -420 -77 -605 -153 -148
-61 -457 -242 -525 -308 -7 -6 -36 -31 -66 -56 -94 -79 -260 -254 -308 -323
-8 -12 -18 -24 -21 -27 -9 -7 -102 -146 -135 -201 -34 -58 -150 -297 -159
-329 -4 -14 -11 -34 -16 -45 -14 -31 -59 -181 -65 -217 -3 -17 -7 -34 -9 -37
-2 -3 -7 -22 -10 -41 -3 -19 -10 -60 -16 -90 -6 -30 -14 -86 -18 -125 -9 -92
-9 -403 1 -480 64 -519 279 -958 648 -1324 285 -283 650 -483 1049 -575 180
-42 274 -51 505 -51 198 1 268 8 451 45 236 49 522 169 739 311 61 39 112 74
115 78 3 3 23 20 45 36 49 37 127 108 214 196 284 288 498 692 576 1087 35
180 40 237 40 447 -1 182 -4 223 -24 350 -17 103 -17 103 -40 191 -94 367
-304 738 -564 998 -337 335 -781 564 -1214 627 -39 5 -82 12 -95 15 -27 6
-423 16 -429 10z"/>
</g>
</svg>
